<?xml version="1.0" encoding="UTF-8"?>
<svg xmlns="http://www.w3.org/2000/svg" viewBox="620 180 320 360">
  <rect width="100%" height="100%" fill="#1d2b55"/>
  <path
    fill="#FFFFFF"
    d="M669.8,483.7V212.8c0-15.4-1-30-3.1-43.9c-0.3-2.2-0.5-3.6-0.5-4.1c0.2-4,4.1-6.8,11.7-8.6c4.3-1,7.9-1.8,10.7-2.6c8.7-2.4,17.3-5.1,25.7-8.1c8.4-3,12.9-4.5,13.4-4.5c1.3,0,2.4,0.6,3.5,1.9c1,1.3,1.5,2.7,1.5,4.3c0,2.4-2.2,4.7-6.6,6.9c-4.4,2.2-7.4,4-8.9,5.2c-4.1,3.3-7,7.9-8.6,13.6c-1.6,5.7-2.4,17.6-2.4,35.8v177.9h10.3c9.5,0,16.8-1.5,21.9-4.4c5.1-2.9,10.3-8,15.7-15.1c6.5-8.9,12-18.6,16.3-29.1c4.4-10.5,6.6-18,6.6-22.7c0-3.2-1.1-5.7-3.2-7.5c-2.1-1.8-5-2.7-8.5-2.7h-2.9c-2.7,0-4.5-0.5-5.2-1.5c-0.8-1-1.2-2.8-1.2-5.4c0.2-4.3,4.4-6.5,12.9-6.7c2.1,0,3.7-0.1,4.8-0.2c12.9-0.6,24.9-1.9,36-3.8c2.1-0.3,3.3-0.5,3.6-0.5c1.6,0,3,0.8,4.3,2.4c1.3,1.6,1.9,3.4,1.9,5.5c0,5.1-5.4,16.3-16.2,33.6c-10.8,17.3-24.1,34.7-39.8,52.2l39.6,38.1c18.9,18.3,36.8,33.7,53.5,46.1c16.8,12.5,25.2,19.2,25.2,20.1c0,2.4-2.1,4.5-6.4,6.4c-4.3,1.9-9.7,2.9-16.2,2.9c-13.2,0-28.1-5.8-44.6-17.4c-16.5-11.6-44.2-37.2-83-76.8c-3,0.5-6.1,0.8-9.3,1.1c-3.2,0.2-6.4,0.4-9.5,0.4h-6.4v74.1c0,3.5-0.4,5.8-1.2,7c-0.8,1.2-2.5,2.5-5,3.9c-5.4,2.5-10.9,5.4-16.5,8.5c-5.6,3.1-8.6,4.6-9.1,4.6c-1.6,0-2.7-0.4-3.3-1.2c-0.6-0.8-1-2.7-1-5.7c0-2.2-0.2-4.8-0.5-7.9C669.8,484.3,669.8,483.8,669.8,483.7z"
  />
</svg>
